<svg xmlns="http://www.w3.org/2000/svg" width="119" height="97" fill="none" viewBox="0 0 119 97">
  <circle cx="29.477" cy="30" r="20" fill="#fff"/>
  <circle cx="29.477" cy="30" r="10" fill="#000"/>
  <circle cx="26.977" cy="23.5" r="1.5" fill="#fff"/>
  <circle cx="32.977" cy="25.5" r="1.5" fill="#fff"/>
  <circle cx="34.977" cy="31.5" r="1.5" fill="#fff"/>
  <circle cx="29.977" cy="36.5" r="1.5" fill="#fff"/>
  <circle cx="23.977" cy="33.5" r="1.5" fill="#fff"/>
  <circle cx="23.977" cy="28.5" r="1.5" fill="#fff"/>
  <circle cx="76.477" cy="25" r="25" fill="#fff"/>
  <circle cx="76.477" cy="25" r="15" fill="#000"/>
  <circle cx="74.977" cy="14.5" r="2.5" fill="#fff"/>
  <circle cx="83.977" cy="19.5" r="2.5" fill="#fff"/>
  <circle cx="84.977" cy="29.5" r="2.5" fill="#fff"/>
  <circle cx="75.977" cy="34.5" r="2.5" fill="#fff"/>
  <circle cx="67.977" cy="29.5" r="2.5" fill="#fff"/>
  <circle cx="67.977" cy="20.5" r="2.5" fill="#fff"/>
  <path fill="#fff" d="M44.477 22h13v13h-13zm-16 21h71v37h-71z"/>
  <path fill="#fff" d="M19.477 53h10v7h-10z"/>
  <path stroke="#fff" stroke-width="3" d="m15.842 51.379 4.552 10.014"/>
  <path stroke="#fff" stroke-width="4" d="M17.477 55h2"/>
  <path stroke="#fff" stroke-width="2" d="M35.477 89V79M16.338 90.793l19.805-2.783"/>
  <path fill="#fff" d="m0 90.591 16.28-3.164 1.225 6.305-16.28 3.164z"/>
  <rect width="4" height="4" x="91.477" y="72" fill="#000" rx="1"/>
  <path fill="#000" d="M49.344 48.008h5.58l8.218 23.489 8.218-23.49h5.581L65.384 80H60.9L49.344 48.008Zm-3.01 0h5.558l1.011 22.895V80h-6.57V48.008Zm28.058 0h5.582V80h-6.592v-9.097l1.01-22.895Z"/>
  <path fill="#fff" d="M99.477 48h17v18h-17z"/>
  <path stroke="#fff" stroke-width="2" d="m107.903 49.159 9.966-6.978m-10.818 22 9.965 6.978"/>
  <path fill="#fff" d="M110.477 47h3v2h-3zm0 18h3v2h-3z"/>
  <path fill="#fff" d="M112.477 66h4v3h-4zm0-21h4v3h-4z"/>
  <path fill="#fff" d="M114.477 44h2v3h-2zm0 23h2v3h-2z"/>
</svg>
